<svg viewBox="0 0 18 16" xmlns="http://www.w3.org/2000/svg">
  <path
    d="m8.62406 14.8538c4.76244 0 8.62234-3.3242 8.62234-7.42689 0-4.10265-3.8599-7.42691-8.62234-7.42691-4.76248 0-8.62231015 3.32426-8.62231015 7.42691 0 1.61036.59615215 3.09929 1.60658015 4.31689-.06399.8748-.38396 1.6532-.720772 2.2459-.185245.3285-.373858.5928-.51195.7713-.07073.0893-.124619.1571-.165037.2035-.020208.0214-.03368.0393-.043785.05l-.010104.0107c-.15493215.1643-.1987173.4071-.1145151.6213.0842021.2142.2795521.3535.4984771.3535.966646 0 1.940016-.3178 2.748366-.6891.77129-.3571 1.42807-.782 1.82887-1.0926 1.07105.4106 2.25662.6391 3.50618.6391zm-4.31115-8.56949c.28584 0 .55998.12038.76211.33466.20212.21428.31568.50491.31568.80794 0 .30304-.11356.59367-.31568.80794-.20213.21428-.47627.33467-.76211.33467-.28585 0-.55999-.12039-.76212-.33467-.20212-.21427-.31567-.5049-.31567-.80794 0-.30303.11355-.59366.31567-.80794.20213-.21428.47627-.33466.76212-.33466zm4.31115 0c.28585 0 .55999.12038.76212.33466.20212.21428.31567.50491.31567.80794 0 .30304-.11355.59367-.31567.80794-.20213.21428-.47627.33467-.76212.33467-.28584 0-.55998-.12039-.76211-.33467-.20212-.21427-.31568-.5049-.31568-.80794 0-.30303.11356-.59366.31568-.80794.20213-.21428.47627-.33466.76211-.33466zm3.23334 1.1426c0-.30303.1136-.59366.3157-.80794s.4763-.33466.7621-.33466c.2859 0 .56.12038.7621.33466.2022.21428.3157.50491.3157.80794 0 .30304-.1135.59367-.3157.80794-.2021.21428-.4762.33467-.7621.33467-.2858 0-.56-.12039-.7621-.33467-.2021-.21427-.3157-.5049-.3157-.80794z"
    fill="white"
  />
</svg>