<svg xmlns="http://www.w3.org/2000/svg" viewBox="0 0 8.095 11.261">
  <g transform="translate(-71.962)">
    <path
      d="M80.057,3.227l-.7-.688-.1-.976-.929-.317L77.811.41l-.974.118L76.01,0l-.827.528L74.208.41l-.515.836-.929.317-.1.976-.7.688.332.924-.332.924.7.688.1.976.929.317.515.836.974-.118.827.528.827-.528.974.118.515-.836.929-.317.1-.976.7-.688-.332-.924Z"
      fill="#ebe42f"
    />
    <g fill="#c18e2e">
      <path d="M82.229,343.6l-.612-.993-.208-.071-.9,2.806,1.616-.089,1.264,1.01.744-2.325-.748-.477Z" transform="translate(-8.361 -335.001)" />
      <path d="M269.22,342.606l-.612.993-1.159-.14-.748.477.744,2.325,1.264-1.01,1.616.089-.9-2.806Z" transform="translate(-190.456 -335.001)" />
    </g>
  </g>
</svg>