<svg viewBox="0 0 24 23" xmlns="http://www.w3.org/2000/svg">
  <path
    d="m11.3945 1.78627c.1496-.46083.8016-.46084.9512.00001l1.9822 6.1068c.2007.61825.7767 1.03689 1.4267 1.03689h6.4168c.4843 0 .6857.61956.2941.90437l-5.193 3.77666c-.5252.382-.745 1.0586-.5445 1.6763l1.9832 6.1096c.1495.4607-.3779.8436-.7697.5587l-5.1891-3.7739c-.526-.3825-1.2386-.3825-1.7645 0l-5.18923 3.7739c-.39176.2849-.91921-.098-.76966-.5587l1.98315-6.1096c.2005-.6177-.01926-1.2943-.54447-1.6763l-5.19301-3.77666c-.391622-.28481-.19016-.90437.29409-.90437h6.41679c.65 0 1.22604-.41864 1.42672-1.03689z"
    fill="#c2b281"
    stroke="#c2b281"
  />
</svg>